<svg width="24" height="27" viewBox="0 0 24 27" fill="none" xmlns="http://www.w3.org/2000/svg">
<path fill-rule="evenodd" clip-rule="evenodd" d="M11.0203 0.215016C11.2709 0.0740499 11.5536 0 11.8411 0C12.1286 0 12.4113 0.0740499 12.6619 0.215016L22.8287 5.93386C23.0877 6.0795 23.3032 6.29142 23.4532 6.54786C23.6031 6.80429 23.6822 7.09602 23.6822 7.3931V18.7895C23.6822 19.0865 23.6031 19.3783 23.4532 19.6347C23.3032 19.8912 23.0877 20.1031 22.8287 20.2487L12.6619 25.9676C12.4113 26.1085 12.1286 26.1826 11.8411 26.1826C11.5536 26.1826 11.2709 26.1085 11.0203 25.9676L0.853434 20.2487C0.59451 20.1031 0.379 19.8912 0.229022 19.6347C0.0790435 19.3783 0 19.0865 0 18.7895V7.3931C0 7.09602 0.0790457 6.8043 0.229023 6.54786L0.230975 6.54453L0.233387 6.54044C0.383167 6.28733 0.59701 6.0781 0.853434 5.93386L11.0203 0.215016ZM1.5 18.7895V8.12878L11.1969 13.5299L11.1022 24.2927L1.58883 18.9414C1.56188 18.9262 1.53945 18.9041 1.52384 18.8774C1.50823 18.8508 1.5 18.8204 1.5 18.7895ZM12.6024 24.28L22.0933 18.9414C22.1203 18.9262 22.1427 18.9041 22.1583 18.8774C22.1739 18.8508 22.1822 18.8204 22.1822 18.7895V8.14115L12.6969 13.5299L12.6024 24.28ZM11.9265 1.52238L21.4081 6.85576L11.9471 12.2308L2.28553 6.84933L11.7557 1.52238C11.7817 1.50771 11.8112 1.5 11.8411 1.5C11.871 1.5 11.9004 1.50771 11.9265 1.52238Z" fill="url(#paint0_linear_1_303)"/>
<defs>
<linearGradient id="paint0_linear_1_303" x1="-0.493378" y1="9.81847" x2="25.4398" y2="15.6826" gradientUnits="userSpaceOnUse">
<stop stop-color="#00EB81"/>
<stop offset="1" stop-color="#0B828C"/>
</linearGradient>
</defs>
</svg>
