<svg width="24" height="25" viewBox="0 0 24 25" fill="none" xmlns="http://www.w3.org/2000/svg">
<path d="M1.79892 6.83249C1.69529 6.7493 1.61166 6.6439 1.5542 6.52408C1.49674 6.40425 1.46693 6.27305 1.46695 6.14015V3.51282C1.46695 3.27741 1.56047 3.05164 1.72693 2.88518C1.89339 2.71872 2.11915 2.62521 2.35456 2.62521C2.58997 2.62521 2.81574 2.71872 2.9822 2.88518C3.14866 3.05164 3.24218 3.27741 3.24218 3.51282V3.52791C5.24209 1.45384 7.94588 0.203417 10.8214 0.0227199C13.697 -0.157977 16.536 0.74414 18.7798 2.55154C18.9496 2.7033 19.0545 2.9145 19.0729 3.14146C19.0914 3.36842 19.0218 3.59377 18.8788 3.77092C18.7357 3.94807 18.53 4.06346 18.3043 4.09324C18.0785 4.12301 17.85 4.06489 17.6659 3.93089C15.7694 2.40253 13.3698 1.63893 10.9389 1.7902C8.50796 1.94148 6.22155 2.9967 4.52922 4.74838L4.72449 4.70489C4.83912 4.67719 4.95812 4.67261 5.07454 4.69142C5.19097 4.71023 5.30247 4.75205 5.40254 4.81444C5.50262 4.87683 5.58926 4.95854 5.6574 5.05479C5.72554 5.15104 5.77382 5.25991 5.79942 5.37502C5.82501 5.49014 5.82741 5.60921 5.80647 5.72527C5.78553 5.84132 5.74168 5.95204 5.67747 6.05096C5.61326 6.14988 5.52998 6.235 5.4325 6.30137C5.33501 6.36774 5.22528 6.41402 5.10971 6.43751L2.54451 7.00646C2.41446 7.03488 2.27968 7.03368 2.15016 7.00295C2.02064 6.97222 1.89968 6.91275 1.79626 6.82894L1.79892 6.83249ZM10.3395 19.655C10.2606 19.569 10.1655 19.4994 10.0597 19.4502C9.95394 19.401 9.83947 19.3731 9.72289 19.3681C9.6063 19.3631 9.48987 19.3811 9.38025 19.4211C9.27063 19.4611 9.16997 19.5223 9.084 19.6013C8.99804 19.6802 8.92846 19.7752 8.87923 19.881C8.83001 19.9868 8.80211 20.1013 8.79712 20.2179C8.79214 20.3345 8.81016 20.4509 8.85017 20.5605C8.89018 20.6701 8.95139 20.7708 9.0303 20.8568L9.16611 21.005C6.80366 20.4138 4.7476 18.9608 3.40172 16.9312C2.05583 14.9016 1.51738 12.4422 1.89212 10.0359C1.92849 9.80319 1.87093 9.56557 1.7321 9.3753C1.59327 9.18504 1.38455 9.05772 1.15185 9.02135C0.919146 8.98498 0.681527 9.04254 0.491263 9.18136C0.301 9.32019 0.173678 9.52891 0.137307 9.76162C-0.305953 12.6088 0.332671 15.5188 1.92746 17.9187C3.52225 20.3186 5.95766 22.0345 8.75425 22.7288L8.74183 22.7359C8.53784 22.8536 8.38898 23.0475 8.32797 23.2749C8.26696 23.5024 8.29881 23.7448 8.41652 23.9488C8.53422 24.1528 8.72814 24.3016 8.9556 24.3626C9.18307 24.4236 9.42546 24.3918 9.62944 24.2741L11.9044 22.9604C12.0195 22.894 12.1182 22.8025 12.1933 22.6928C12.2683 22.5831 12.3177 22.4579 12.3379 22.3265C12.3581 22.1952 12.3486 22.0609 12.3099 21.9337C12.2713 21.8066 12.2046 21.6897 12.1148 21.5917L10.3395 19.655ZM23.5286 6.82628L21.2527 5.51172C21.1377 5.44523 21.0091 5.40543 20.8766 5.39525C20.7441 5.38507 20.611 5.40477 20.4871 5.45291C20.3633 5.50104 20.2518 5.57638 20.1609 5.67336C20.0701 5.77034 20.0021 5.88649 19.9621 6.01323L19.1748 8.51896C19.1042 8.74342 19.1255 8.98676 19.2342 9.19549C19.3429 9.40421 19.53 9.56123 19.7544 9.63202C19.8405 9.65956 19.9303 9.67363 20.0207 9.67374C20.2096 9.67375 20.3936 9.61351 20.5459 9.50176C20.6982 9.39002 20.8108 9.2326 20.8675 9.05241L20.927 8.86158C21.5949 11.2023 21.3644 13.7081 20.2807 15.8877C19.197 18.0673 17.3382 19.7635 15.0687 20.6438C14.9568 20.6833 14.8539 20.7449 14.7661 20.8249C14.6784 20.9049 14.6076 21.0017 14.558 21.1095C14.5083 21.2174 14.4808 21.3341 14.4771 21.4528C14.4733 21.5714 14.4934 21.6896 14.5362 21.8004C14.5789 21.9112 14.6435 22.0122 14.726 22.0976C14.8085 22.183 14.9073 22.2509 15.0166 22.2974C15.1258 22.3439 15.2433 22.3681 15.362 22.3683C15.4808 22.3686 15.5983 22.3451 15.7078 22.2992C18.3957 21.2603 20.5972 19.2526 21.8787 16.6715C23.1601 14.0904 23.4286 11.123 22.6312 8.35386L22.6454 8.36185C22.7464 8.42436 22.859 8.46595 22.9764 8.48415C23.0938 8.50235 23.2137 8.49679 23.3289 8.46781C23.4442 8.43882 23.5524 8.38699 23.6472 8.3154C23.742 8.24381 23.8215 8.1539 23.881 8.05102C23.9404 7.94814 23.9786 7.83437 23.9932 7.71646C24.0079 7.59855 23.9987 7.4789 23.9663 7.3646C23.9338 7.2503 23.8787 7.14368 23.8043 7.05106C23.7299 6.95844 23.6376 6.8817 23.533 6.82539L23.5286 6.82628Z" fill="url(#paint0_linear_9_5723)"/>
<defs>
<linearGradient id="paint0_linear_9_5723" x1="-0.5" y1="9.14736" x2="25.549" y2="15.5547" gradientUnits="userSpaceOnUse">
<stop stop-color="#00EB81"/>
<stop offset="1" stop-color="#0B828C"/>
</linearGradient>
</defs>
</svg>
