<svg width="22" height="29" viewBox="0 0 22 29" fill="none" xmlns="http://www.w3.org/2000/svg">
<path fill-rule="evenodd" clip-rule="evenodd" d="M14.1735 4.54222L11.4809 1.84965V4.54222H14.1735ZM10.858 0.00558748C10.8849 0.00168157 10.9122 -0.000190627 10.9396 1.53115e-05C11.0112 0.000554446 11.082 0.0153254 11.1478 0.0434693C11.2137 0.0716131 11.2733 0.112568 11.3232 0.163953L15.8601 4.69924C15.9358 4.7748 15.9873 4.8711 16.0082 4.97596C16.017 5.02016 16.0202 5.06505 16.0179 5.10958V7.36449H16.6969L16.7126 7.36426C16.8559 7.36426 16.9934 7.42119 17.0947 7.52252L21.6068 12.0376C21.6146 12.0446 21.6223 12.0519 21.6298 12.0594C21.7311 12.1607 21.7881 12.2981 21.7881 12.4414V27.5597C21.7881 27.703 21.7311 27.8404 21.6298 27.9417C21.5285 28.043 21.3911 28.1 21.2478 28.1H6.30982C6.16653 28.1 6.02911 28.043 5.92779 27.9417C5.82647 27.8404 5.76954 27.703 5.76954 27.5597V20.7414H0.540277C0.396986 20.7414 0.259564 20.6845 0.158243 20.5832C0.0569214 20.4818 0 20.3444 0 20.2011V0.545864C0 0.402574 0.0569214 0.265152 0.158243 0.163831C0.259564 0.0625094 0.396986 0.00558748 0.540277 0.00558748H10.858ZM17.2504 9.2069L19.9436 11.9011H17.2504V9.2069ZM15.4776 8.44505L15.4758 8.44504H6.85077L6.8501 27.0194H20.7075V12.9817H16.7108C16.5675 12.9817 16.4301 12.9248 16.3288 12.8234C16.2275 12.7221 16.1705 12.5847 16.1705 12.4414V8.44504H15.4793L15.4776 8.44505ZM14.9373 5.62278V7.36449H6.30982C6.16653 7.36449 6.02911 7.42141 5.92779 7.52273C5.82647 7.62405 5.76954 7.76148 5.76954 7.90477V19.6609H1.08123V1.08614H10.401V5.0825C10.401 5.22579 10.4579 5.36321 10.5592 5.46453C10.6606 5.56585 10.798 5.62278 10.9413 5.62278H14.9373Z" fill="white"/>
</svg>
