<svg width="27" height="28" viewBox="0 0 27 28" fill="none" xmlns="http://www.w3.org/2000/svg">
<path d="M0.620091 4.62175H5.01653C5.16759 5.54454 5.61787 6.38077 6.28817 6.98336C6.95847 7.58595 7.80585 7.9163 8.68127 7.9163C9.55669 7.9163 10.4041 7.58595 11.0744 6.98336C11.7447 6.38077 12.195 5.54454 12.346 4.62175H25.4237C25.5882 4.62175 25.7459 4.55183 25.8622 4.42738C25.9785 4.30294 26.0438 4.13415 26.0438 3.95815C26.0438 3.78215 25.9785 3.61336 25.8622 3.48891C25.7459 3.36447 25.5882 3.29455 25.4237 3.29455H12.346C12.195 2.37176 11.7447 1.53553 11.0744 0.932937C10.4041 0.330348 9.55669 0 8.68127 0C7.80585 0 6.95847 0.330348 6.28817 0.932937C5.61787 1.53553 5.16759 2.37176 5.01653 3.29455H0.620091C0.455632 3.29455 0.29791 3.36447 0.18162 3.48891C0.0653308 3.61336 0 3.78215 0 3.95815C0 4.13415 0.0653308 4.30294 0.18162 4.42738C0.29791 4.55183 0.455632 4.62175 0.620091 4.62175ZM8.68127 1.30375C9.17184 1.30375 9.65139 1.45943 10.0593 1.7511C10.4672 2.04277 10.7851 2.45733 10.9728 2.94236C11.1606 3.42738 11.2097 3.96109 11.114 4.476C11.0183 4.9909 10.782 5.46387 10.4352 5.83509C10.0883 6.20631 9.64631 6.45912 9.16517 6.56154C8.68402 6.66396 8.1853 6.61139 7.73208 6.41049C7.27885 6.20958 6.89147 5.86936 6.61892 5.43285C6.34638 4.99634 6.20091 4.48314 6.20091 3.95815C6.20091 3.25416 6.46223 2.579 6.92739 2.08121C7.39255 1.58341 8.02344 1.30375 8.68127 1.30375ZM25.4237 13.2485H21.0273C20.8762 12.3257 20.4259 11.4895 19.7556 10.8869C19.0853 10.2843 18.238 9.95398 17.3625 9.95398C16.4871 9.95398 15.6397 10.2843 14.9694 10.8869C14.2991 11.4895 13.8489 12.3257 13.6978 13.2485H0.620091C0.455632 13.2485 0.29791 13.3184 0.18162 13.4429C0.0653308 13.5673 0 13.7361 0 13.9121C0 14.0881 0.0653308 14.2569 0.18162 14.3814C0.29791 14.5058 0.455632 14.5757 0.620091 14.5757H13.6978C13.8489 15.4985 14.2991 16.3347 14.9694 16.9373C15.6397 17.5399 16.4871 17.8703 17.3625 17.8703C18.238 17.8703 19.0853 17.5399 19.7556 16.9373C20.4259 16.3347 20.8762 15.4985 21.0273 14.5757H25.4237C25.5882 14.5757 25.7459 14.5058 25.8622 14.3814C25.9785 14.2569 26.0438 14.0881 26.0438 13.9121C26.0438 13.7361 25.9785 13.5673 25.8622 13.4429C25.7459 13.3184 25.5882 13.2485 25.4237 13.2485ZM17.3625 16.5665C16.872 16.5665 16.3924 16.4108 15.9845 16.1192C15.5766 15.8275 15.2587 15.4129 15.071 14.9279C14.8833 14.4429 14.8341 13.9092 14.9298 13.3943C15.0255 12.8794 15.2618 12.4064 15.6087 12.0352C15.9555 11.664 16.3975 11.4112 16.8786 11.3087C17.3598 11.2063 17.8585 11.2589 18.3117 11.4598C18.765 11.6607 19.1523 12.0009 19.4249 12.4374C19.6974 12.8739 19.8429 13.3871 19.8429 13.9121C19.8429 14.6161 19.5816 15.2913 19.1164 15.7891C18.6513 16.2869 18.0204 16.5665 17.3625 16.5665ZM25.4237 23.2025H12.346C12.195 22.2797 11.7447 21.4435 11.0744 20.8409C10.4041 20.2383 9.55669 19.908 8.68127 19.908C7.80585 19.908 6.95847 20.2383 6.28817 20.8409C5.61787 21.4435 5.16759 22.2797 5.01653 23.2025H0.620091C0.455632 23.2025 0.29791 23.2724 0.18162 23.3969C0.0653308 23.5213 0 23.6901 0 23.8661C0 24.0421 0.0653308 24.2109 0.18162 24.3353C0.29791 24.4598 0.455632 24.5297 0.620091 24.5297H5.01653C5.16759 25.4525 5.61787 26.2887 6.28817 26.8913C6.95847 27.4939 7.80585 27.8243 8.68127 27.8243C9.55669 27.8243 10.4041 27.4939 11.0744 26.8913C11.7447 26.2887 12.195 25.4525 12.346 24.5297H25.4237C25.5882 24.5297 25.7459 24.4598 25.8622 24.3353C25.9785 24.2109 26.0438 24.0421 26.0438 23.8661C26.0438 23.6901 25.9785 23.5213 25.8622 23.3969C25.7459 23.2724 25.5882 23.2025 25.4237 23.2025ZM8.68127 26.5205C8.1907 26.5205 7.71115 26.3648 7.30326 26.0732C6.89536 25.7815 6.57745 25.3669 6.38971 24.8819C6.20198 24.3969 6.15286 23.8632 6.24857 23.3483C6.34427 22.8334 6.5805 22.3604 6.92739 21.9892C7.27427 21.6179 7.71623 21.3651 8.19738 21.2627C8.67852 21.1603 9.17724 21.2129 9.63046 21.4138C10.0837 21.6147 10.4711 21.9549 10.7436 22.3914C11.0162 22.8279 11.1616 23.3411 11.1616 23.8661C11.1616 24.5701 10.9003 25.2452 10.4352 25.743C9.96999 26.2408 9.3391 26.5205 8.68127 26.5205Z" fill="url(#paint0_linear_4_1908)"/>
<defs>
<linearGradient id="paint0_linear_4_1908" x1="-0.542579" y1="10.4341" x2="27.8787" y2="17.0847" gradientUnits="userSpaceOnUse">
<stop stop-color="#00EB81"/>
<stop offset="1" stop-color="#0B828C"/>
</linearGradient>
</defs>
</svg>
