<svg width="24" height="27" viewBox="0 0 24 27" fill="none" xmlns="http://www.w3.org/2000/svg">
<path fill-rule="evenodd" clip-rule="evenodd" d="M12 0C8.70933 0 6.03067 2.69557 6.03067 5.99608C6.03067 7.8935 6.93067 9.56708 8.30667 10.6677H7.94533C3.55333 10.6677 0 14.236 0 18.6398V25.9963C0 26.173 0.070238 26.3425 0.195262 26.4674C0.320287 26.5924 0.489856 26.6626 0.666667 26.6626H4.44533C4.53976 26.6833 4.63757 26.6833 4.732 26.6626H19.2C19.2854 26.6794 19.3733 26.6794 19.4587 26.6626H23.3333C23.5101 26.6626 23.6797 26.5924 23.8047 26.4674C23.9298 26.3425 24 26.173 24 25.9963V18.6398C24 14.236 20.4467 10.6677 16.0547 10.6677H15.6933C17.0693 9.56708 17.9693 7.8935 17.9693 5.99608C17.9693 2.69557 15.2907 0 12 0ZM12 1.33246C12.6112 1.33298 13.2164 1.45418 13.7806 1.68911C14.3448 1.92404 14.8571 2.26807 15.2878 2.70142C15.7186 3.13478 16.0595 3.64893 16.2909 4.21433C16.5222 4.77973 16.6395 5.38524 16.636 5.99608C16.6395 6.60692 16.5222 7.21243 16.2909 7.77783C16.0595 8.34323 15.7186 8.85738 15.2878 9.29074C14.8571 9.72409 14.3448 10.0681 13.7806 10.303C13.2164 10.538 12.6112 10.6592 12 10.6597C11.3888 10.6592 10.7836 10.538 10.2194 10.303C9.65516 10.0681 9.14294 9.72409 8.71215 9.29074C8.28136 8.85738 7.9405 8.34323 7.70914 7.77783C7.47778 7.21243 7.36049 6.60692 7.364 5.99608C7.36049 5.38524 7.47778 4.77973 7.70914 4.21433C7.9405 3.64893 8.28136 3.13478 8.71215 2.70142C9.14294 2.26807 9.65516 1.92404 10.2194 1.68911C10.7836 1.45418 11.3888 1.33298 12 1.33246ZM7.94533 12.0002H10.212L9.724 19.1048C9.71689 19.2035 9.73186 19.3026 9.76784 19.3948C9.80382 19.487 9.8599 19.57 9.932 19.6378L11.5453 21.1475C11.6688 21.2629 11.8316 21.3271 12.0007 21.3271C12.1697 21.3271 12.3325 21.2629 12.456 21.1475L14.068 19.6392C14.1401 19.5713 14.1962 19.4883 14.2322 19.3961C14.2681 19.3039 14.2831 19.2049 14.276 19.1062L13.7893 12.0002H16.0547C16.9261 11.9985 17.7893 12.1694 18.5943 12.5029C19.3993 12.8364 20.1303 13.326 20.745 13.9432C21.3597 14.5605 21.846 15.2934 22.1758 16.0995C22.5057 16.9056 22.6725 17.769 22.6667 18.6398V25.3301H20V21.9803C20 21.8036 19.9298 21.6341 19.8047 21.5092C19.6797 21.3843 19.5101 21.3141 19.3333 21.3141C19.1565 21.3141 18.987 21.3843 18.8619 21.5092C18.7369 21.6341 18.6667 21.8036 18.6667 21.9803V25.3301H5.25467V21.9856C5.25467 21.8089 5.18443 21.6395 5.05941 21.5145C4.93438 21.3896 4.76481 21.3194 4.588 21.3194C4.41119 21.3194 4.24162 21.3896 4.1166 21.5145C3.99157 21.6395 3.92133 21.8089 3.92133 21.9856V25.3301H1.33333V18.6398C1.32752 17.769 1.49434 16.9056 1.82417 16.0995C2.154 15.2934 2.64031 14.5605 3.25503 13.9432C3.86975 13.326 4.60071 12.8364 5.40573 12.5029C6.21075 12.1694 7.07388 11.9985 7.94533 12.0002ZM11.5493 12.0002H12.4533L12.924 18.881L12 19.7471L11.076 18.881L11.5493 12.0002Z" fill="url(#paint0_linear_1_174)"/>
<defs>
<linearGradient id="paint0_linear_1_174" x1="-0.5" y1="10.0043" x2="25.795" y2="15.9181" gradientUnits="userSpaceOnUse">
<stop stop-color="#00EB81"/>
<stop offset="1" stop-color="#0B828C"/>
</linearGradient>
</defs>
</svg>
