<svg width="25" height="27" viewBox="0 0 25 27" fill="none" xmlns="http://www.w3.org/2000/svg">
<path d="M7.00427 8.81818H9.26137L12.2841 16.196H12.4034L15.4261 8.81818H17.6833V19H15.9134V12.005H15.8189L13.005 18.9702H11.6825L8.86862 11.9901H8.77416V19H7.00427V8.81818Z" fill="url(#paint0_linear_9_5744)"/>
<path fill-rule="evenodd" clip-rule="evenodd" d="M11.4739 0.945301C11.7245 0.804336 12.0072 0.730286 12.2948 0.730286C12.5823 0.730286 12.865 0.804336 13.1156 0.945301L23.2824 6.66414C23.5413 6.80979 23.7568 7.02171 23.9068 7.27814C24.0568 7.53458 24.1358 7.82631 24.1358 8.12338V19.5198C24.1358 19.8168 24.0568 20.1086 23.9068 20.365C23.7568 20.6214 23.5413 20.8334 23.2824 20.979L13.1156 26.6978C12.865 26.8388 12.5823 26.9129 12.2948 26.9129C12.0072 26.9129 11.7245 26.8388 11.4739 26.6978L1.30711 20.979C1.04818 20.8334 0.832675 20.6214 0.682696 20.365C0.532718 20.1086 0.453674 19.8168 0.453674 19.5198V8.12338C0.453674 7.82631 0.53272 7.53458 0.682697 7.27814C0.832675 7.02171 1.04818 6.80979 1.30711 6.66414L11.4739 0.945301ZM12.2948 2.23029C12.2648 2.23029 12.2354 2.23799 12.2093 2.25266L2.0425 7.97151C2.01555 7.98667 1.99312 8.00872 1.97751 8.03541C1.9619 8.0621 1.95367 8.09247 1.95367 8.12338V19.5198C1.95367 19.5507 1.9619 19.581 1.97751 19.6077C1.99312 19.6344 2.01555 19.6565 2.0425 19.6716L12.2093 25.3905C12.2354 25.4052 12.2648 25.4129 12.2948 25.4129C12.3247 25.4129 12.3541 25.4052 12.3802 25.3905L22.547 19.6716C22.574 19.6565 22.5964 19.6344 22.612 19.6077C22.6276 19.581 22.6358 19.5507 22.6358 19.5198V8.12338C22.6358 8.09247 22.6276 8.0621 22.612 8.03541C22.5964 8.00872 22.574 7.98666 22.547 7.97151L12.3802 2.25266C12.3541 2.23799 12.3247 2.23029 12.2948 2.23029Z" fill="url(#paint1_linear_9_5744)"/>
<defs>
<linearGradient id="paint0_linear_9_5744" x1="6.78179" y1="12.6364" x2="18.283" y2="15.6521" gradientUnits="userSpaceOnUse">
<stop stop-color="#00EB81"/>
<stop offset="1" stop-color="#0B828C"/>
</linearGradient>
<linearGradient id="paint1_linear_9_5744" x1="-0.0397041" y1="10.5488" x2="25.8934" y2="16.4129" gradientUnits="userSpaceOnUse">
<stop stop-color="#00EB81"/>
<stop offset="1" stop-color="#0B828C"/>
</linearGradient>
</defs>
</svg>
