<svg width="32" height="32" viewBox="0 0 32 32" fill="none" xmlns="http://www.w3.org/2000/svg">
<path d="M19.1944 18.0882C19.2039 18.4634 19.1283 18.8358 18.9732 19.1776C18.8182 19.5194 18.5877 19.8216 18.2991 20.0615C17.9887 20.3146 17.6344 20.5084 17.2538 20.6334C16.8414 20.774 16.3773 20.8584 15.8711 20.8865L15.7024 22.5458C15.6969 22.5751 15.6874 22.6034 15.6742 22.6302C15.6583 22.6617 15.6317 22.6866 15.5992 22.7005C15.5533 22.7228 15.5043 22.7386 15.4539 22.7473C15.3716 22.7586 15.2886 22.7633 15.2055 22.7614C15.0547 22.7614 14.9046 22.7393 14.7602 22.6958C14.7426 22.6892 14.7265 22.6792 14.7128 22.6663C14.6991 22.6535 14.6881 22.638 14.6805 22.6208C14.6687 22.5842 14.6687 22.5449 14.6805 22.5083L14.854 20.8537C14.4321 20.8034 14.0161 20.7123 13.6118 20.5818C13.47 20.5332 13.332 20.4736 13.1994 20.4037C13.1078 20.3591 13.0227 20.3023 12.9462 20.235C12.8888 20.1754 12.8498 20.1005 12.8337 20.0193C12.7963 19.8088 12.7915 19.5938 12.8197 19.3819C12.8288 19.3195 12.8445 19.2582 12.8666 19.1991C12.8809 19.158 12.9091 19.1232 12.9462 19.1006C12.9824 19.0818 13.0226 19.0721 13.0634 19.0725C13.129 19.0725 13.2228 19.11 13.3447 19.185C13.7265 19.4073 14.1386 19.5731 14.568 19.6772C14.9119 19.7588 15.2647 19.7966 15.618 19.7897C16.3398 19.7897 16.8882 19.6491 17.2632 19.3678C17.6382 19.0772 17.8257 18.6882 17.8257 18.2007C17.834 17.9356 17.7621 17.6742 17.6195 17.4507C17.4733 17.2424 17.2868 17.0654 17.071 16.9304C16.8297 16.7769 16.5719 16.6511 16.3023 16.5555C16.0089 16.4483 15.7152 16.342 15.4211 16.2367C15.1214 16.1281 14.8273 16.0045 14.5399 15.8664C14.262 15.7338 14.0047 15.5617 13.7759 15.3555C13.5472 15.1454 13.3625 14.8921 13.2322 14.6102C13.085 14.2704 13.0145 13.9023 13.0259 13.5322C13.022 13.2037 13.0809 12.8776 13.1994 12.5713C13.3177 12.2781 13.4985 12.0142 13.729 11.7979C13.9872 11.5622 14.2879 11.3777 14.6149 11.2541C15.0147 11.1044 15.4353 11.0175 15.8617 10.9963L16.0117 9.44955C16.019 9.42013 16.03 9.39177 16.0445 9.36518C16.0596 9.33464 16.0843 9.30993 16.1148 9.29487C16.1584 9.27069 16.2061 9.25479 16.2555 9.248C16.4334 9.23361 16.6122 9.23518 16.7898 9.25268C16.849 9.25819 16.9064 9.27573 16.9585 9.30424C16.996 9.32768 17.0195 9.35112 17.0335 9.38393C17.0444 9.41879 17.0491 9.45526 17.0476 9.49174L16.8789 11.0198C17.3416 11.071 17.7929 11.1977 18.2147 11.3948C18.3027 11.431 18.3848 11.48 18.4585 11.5401C18.5053 11.5869 18.5335 11.6198 18.5522 11.6573C18.5701 11.6964 18.5843 11.7372 18.5944 11.7791C18.6186 11.8994 18.6296 12.022 18.6272 12.1447C18.6272 12.2385 18.6272 12.3275 18.6178 12.3978C18.6136 12.4537 18.6026 12.5087 18.585 12.5619C18.5735 12.5981 18.5525 12.6304 18.5241 12.6556C18.4977 12.6773 18.4645 12.6889 18.4303 12.6885C18.335 12.6764 18.2436 12.6427 18.1632 12.59C17.8108 12.4075 17.44 12.2629 17.057 12.1588C16.789 12.0904 16.5133 12.0573 16.2367 12.0604C15.9415 12.0548 15.6468 12.0879 15.3602 12.1588C15.1466 12.2123 14.9458 12.3079 14.7696 12.44C14.6256 12.5538 14.5127 12.7021 14.4415 12.8713C14.3713 13.0471 14.3363 13.235 14.3384 13.4244C14.3384 13.729 14.4087 13.9821 14.5493 14.1884C14.6954 14.3956 14.8819 14.571 15.0977 14.704C15.3274 14.8446 15.5852 14.9712 15.8758 15.0743C16.1664 15.1727 16.4664 15.2805 16.7664 15.393C17.071 15.5008 17.3663 15.6227 17.657 15.7539C17.9412 15.881 18.2037 16.0518 18.435 16.2602C18.6669 16.4696 18.8549 16.7229 18.9881 17.0054C19.1349 17.3454 19.2053 17.7181 19.1944 18.0882Z" fill="url(#paint0_linear_9_5713)"/>
<path d="M15.9977 3.99825C19.3116 3.99825 22.3114 5.3435 24.4816 7.51371C26.6565 9.68391 27.9971 12.6838 27.9971 15.9977C27.9971 19.3116 26.6565 22.3114 24.4816 24.4816C23.3688 25.5976 22.0464 26.4827 20.5904 27.086C19.1345 27.6893 17.5737 27.9989 15.9977 27.9971C14.4217 27.9989 12.8608 27.6893 11.4049 27.086C9.94891 26.4827 8.62652 25.5976 7.51369 24.4816C6.39772 23.3688 5.51266 22.0464 4.90937 20.5904C4.30607 19.1345 3.99643 17.5737 3.99824 15.9977C3.99824 12.6838 5.34348 9.68391 7.51369 7.51371C8.62652 6.39774 9.94891 5.51268 11.4049 4.90938C12.8608 4.30608 14.4217 3.99644 15.9977 3.99825ZM23.9519 8.04337C22.9086 6.99708 21.6688 6.16734 20.3037 5.60184C18.9386 5.03634 17.4752 4.74624 15.9977 4.74822C12.8947 4.74822 10.0823 6.00909 8.04335 8.04337C6.99707 9.08669 6.16732 10.3265 5.60182 11.6916C5.03632 13.0567 4.74622 14.5201 4.7482 15.9977C4.7482 19.1053 6.00908 21.9177 8.04335 23.952C9.08667 24.9983 10.3265 25.828 11.6916 26.3935C13.0567 26.959 14.5201 27.2491 15.9977 27.2471C19.1053 27.2471 21.9177 25.9909 23.9519 23.952C24.9982 22.9086 25.828 21.6688 26.3935 20.3037C26.959 18.9386 27.2491 17.4752 27.2471 15.9977C27.2471 12.8947 25.9909 10.0823 23.9519 8.04337Z" fill="url(#paint1_linear_9_5713)"/>
<path d="M15.9977 25.6862C21.3485 25.6862 25.6862 21.3485 25.6862 15.9977C25.6862 10.6468 21.3485 6.30907 15.9977 6.30907C10.6468 6.30907 6.30906 10.6468 6.30906 15.9977C6.30906 21.3485 10.6468 25.6862 15.9977 25.6862Z" stroke="url(#paint2_linear_9_5713)" stroke-width="1.5"/>
<defs>
<linearGradient id="paint0_linear_9_5713" x1="12.6684" y1="14.3096" x2="19.9266" y2="15.1675" gradientUnits="userSpaceOnUse">
<stop stop-color="#00EB81"/>
<stop offset="1" stop-color="#0B828C"/>
</linearGradient>
<linearGradient id="paint1_linear_9_5713" x1="3.49825" y1="12.9978" x2="29.497" y2="19.4975" gradientUnits="userSpaceOnUse">
<stop stop-color="#00EB81"/>
<stop offset="1" stop-color="#0B828C"/>
</linearGradient>
<linearGradient id="paint2_linear_9_5713" x1="5.90537" y1="13.5755" x2="26.8973" y2="18.8235" gradientUnits="userSpaceOnUse">
<stop stop-color="#00EB81"/>
<stop offset="1" stop-color="#0B828C"/>
</linearGradient>
</defs>
</svg>
