<svg width="24" height="33" viewBox="0 0 24 33" fill="none" xmlns="http://www.w3.org/2000/svg">
<path d="M17.7391 3.3H16.1418C16.0282 2.47109 15.6155 1.70456 14.9516 1.10445C14.1634 0.392243 13.1153 0 12 0C9.87534 0 8.11625 1.44214 7.85844 3.3H6.26087C5.39776 3.3 4.69565 3.9344 4.69565 4.71429V5.18571H0.521739C0.233611 5.18571 0 5.3968 0 5.65714V32.5286C0 32.7889 0.233611 33 0.521739 33H23.4783C23.7664 33 24 32.7889 24 32.5286V5.65714C24 5.3968 23.7664 5.18571 23.4783 5.18571H19.3043V4.71429C19.3043 3.9344 18.6022 3.3 17.7391 3.3ZM5.73913 4.71429C5.73913 4.4544 5.97325 4.24286 6.26087 4.24286H8.34783C8.63595 4.24286 8.86957 4.03177 8.86957 3.77143C8.86957 2.21166 10.2738 0.942857 12 0.942857C12.8364 0.942857 13.6228 1.23704 14.2138 1.77108C14.8049 2.30535 15.1304 3.01572 15.1304 3.77143C15.1304 4.03177 15.364 4.24286 15.6522 4.24286H17.7391C18.0267 4.24286 18.2609 4.4544 18.2609 4.71429V6.6H5.73913V4.71429ZM22.9565 6.12857V32.0571H1.04348V6.12857H4.69565V7.07143C4.69565 7.33177 4.92926 7.54286 5.21739 7.54286H18.7826C19.0707 7.54286 19.3043 7.33177 19.3043 7.07143V6.12857H22.9565Z" fill="url(#paint0_linear_9_5732)"/>
<path d="M12 5.6129C12.7238 5.6129 13.3125 5.02687 13.3125 4.30645C13.3125 3.58603 12.7238 3 12 3C11.2762 3 10.6875 3.58603 10.6875 4.30645C10.6875 5.02687 11.2762 5.6129 12 5.6129ZM12 3.87097C12.2412 3.87097 12.4375 4.06638 12.4375 4.30645C12.4375 4.54652 12.2412 4.74194 12 4.74194C11.7588 4.74194 11.5625 4.54652 11.5625 4.30645C11.5625 4.06638 11.7588 3.87097 12 3.87097ZM5 11.7097C5 11.9502 5.19589 12.1452 5.4375 12.1452H18.5625C18.8041 12.1452 19 11.9502 19 11.7097C19 11.4692 18.8041 11.2742 18.5625 11.2742H5.4375C5.19589 11.2742 5 11.4692 5 11.7097ZM18.5625 14.7581H5.4375C5.19589 14.7581 5 14.9531 5 15.1935C5 15.434 5.19589 15.629 5.4375 15.629H18.5625C18.8041 15.629 19 15.434 19 15.1935C19 14.9531 18.8041 14.7581 18.5625 14.7581ZM18.5625 18.2419H5.4375C5.19589 18.2419 5 18.4369 5 18.6774C5 18.9179 5.19589 19.1129 5.4375 19.1129H18.5625C18.8041 19.1129 19 18.9179 19 18.6774C19 18.4369 18.8041 18.2419 18.5625 18.2419ZM18.5625 21.7258H5.4375C5.19589 21.7258 5 21.9208 5 22.1613C5 22.4018 5.19589 22.5968 5.4375 22.5968H18.5625C18.8041 22.5968 19 22.4018 19 22.1613C19 21.9208 18.8041 21.7258 18.5625 21.7258ZM15.5 23.9032C13.8113 23.9032 12.4375 25.2707 12.4375 26.9516C12.4375 28.6325 13.8113 30 15.5 30C17.1887 30 18.5625 28.6325 18.5625 26.9516C18.5625 25.2707 17.1887 23.9032 15.5 23.9032ZM15.5 29.129C14.2939 29.129 13.3125 28.1522 13.3125 26.9516C13.3125 25.7511 14.2939 24.7742 15.5 24.7742C16.7061 24.7742 17.6875 25.7511 17.6875 26.9516C17.6875 28.1522 16.7061 29.129 15.5 29.129Z" fill="url(#paint1_linear_9_5732)"/>
<path d="M16.2855 26.1081L15.1499 27.1092L14.7145 26.7256C14.551 26.5814 14.2861 26.5814 14.1226 26.7256C13.9591 26.8697 13.9591 27.1034 14.1226 27.2474L14.8539 27.8919C14.9357 27.964 15.0428 28 15.1499 28C15.257 28 15.3641 27.964 15.4458 27.8919L16.8774 26.6299C17.0409 26.4858 17.0409 26.2523 16.8774 26.1081C16.7139 25.964 16.449 25.964 16.2855 26.1081Z" fill="url(#paint2_linear_9_5732)"/>
<defs>
<linearGradient id="paint0_linear_9_5732" x1="-0.5" y1="12.375" x2="26.241" y2="17.237" gradientUnits="userSpaceOnUse">
<stop stop-color="#00EB81"/>
<stop offset="1" stop-color="#0B828C"/>
</linearGradient>
<linearGradient id="paint1_linear_9_5732" x1="4.70833" y1="13.125" x2="20.5566" y2="15.1794" gradientUnits="userSpaceOnUse">
<stop stop-color="#00EB81"/>
<stop offset="1" stop-color="#0B828C"/>
</linearGradient>
<linearGradient id="paint2_linear_9_5732" x1="13.9375" y1="26.75" x2="16.9649" y2="27.8853" gradientUnits="userSpaceOnUse">
<stop stop-color="#00EB81"/>
<stop offset="1" stop-color="#0B828C"/>
</linearGradient>
</defs>
</svg>
