<svg width="24" height="27" viewBox="0 0 24 27" fill="none" xmlns="http://www.w3.org/2000/svg">
<path d="M8 9.81588V8.26971H16.1236V9.81588H12.9766V18.4515H11.147V9.81588H8Z" fill="url(#paint0_linear_9_5742)"/>
<path fill-rule="evenodd" clip-rule="evenodd" d="M11.0203 0.215016C11.2709 0.0740499 11.5536 0 11.8411 0C12.1286 0 12.4113 0.0740499 12.6619 0.215016L22.8287 5.93386C23.0877 6.0795 23.3032 6.29142 23.4532 6.54786C23.6031 6.80429 23.6822 7.09602 23.6822 7.3931V18.7895C23.6822 19.0865 23.6031 19.3783 23.4532 19.6347C23.3032 19.8912 23.0877 20.1031 22.8287 20.2487L12.6619 25.9676C12.4113 26.1085 12.1286 26.1826 11.8411 26.1826C11.5536 26.1826 11.2709 26.1085 11.0203 25.9676L0.853434 20.2487C0.59451 20.1031 0.379 19.8912 0.229022 19.6347C0.0790435 19.3783 -2.38418e-07 19.0865 0 18.7895V7.3931C1.78814e-07 7.09602 0.0790457 6.8043 0.229023 6.54786C0.379 6.29142 0.594509 6.0795 0.853434 5.93386L11.0203 0.215016ZM11.8411 1.5C11.8112 1.5 11.7817 1.50771 11.7557 1.52238L1.58883 7.24122C1.56188 7.25638 1.53945 7.27844 1.52384 7.30513C1.50823 7.33182 1.5 7.36218 1.5 7.3931V18.7895C1.5 18.8204 1.50823 18.8508 1.52384 18.8774C1.53945 18.9041 1.56188 18.9262 1.58883 18.9414L11.7557 24.6602C11.7817 24.6749 11.8112 24.6826 11.8411 24.6826C11.871 24.6826 11.9004 24.6749 11.9265 24.6602L22.0933 18.9414C22.1203 18.9262 22.1427 18.9041 22.1583 18.8774C22.1739 18.8508 22.1822 18.8204 22.1822 18.7895V7.3931C22.1822 7.36218 22.1739 7.33182 22.1583 7.30513C22.1427 7.27844 22.1203 7.25638 22.0933 7.24122L11.9265 1.52238C11.9004 1.50771 11.871 1.5 11.8411 1.5Z" fill="url(#paint1_linear_9_5742)"/>
<defs>
<linearGradient id="paint0_linear_9_5742" x1="7.83076" y1="12.0879" x2="16.8236" y2="13.8816" gradientUnits="userSpaceOnUse">
<stop stop-color="#00EB81"/>
<stop offset="1" stop-color="#0B828C"/>
</linearGradient>
<linearGradient id="paint1_linear_9_5742" x1="-0.493378" y1="9.81847" x2="25.4398" y2="15.6826" gradientUnits="userSpaceOnUse">
<stop stop-color="#00EB81"/>
<stop offset="1" stop-color="#0B828C"/>
</linearGradient>
</defs>
</svg>
