<svg width="23" height="23" viewBox="0 0 23 23" fill="none" xmlns="http://www.w3.org/2000/svg">
<path d="M2.66554 23H20.3415C21.046 22.9981 21.7211 22.7174 22.2193 22.2193C22.7174 21.7211 22.9981 21.046 23 20.3415V2.66554C23 1.95982 22.7201 1.2829 22.2218 0.783214C21.7234 0.283531 21.0472 0.00187194 20.3415 0H2.66554C1.95859 0 1.2806 0.280833 0.780719 0.780719C0.280833 1.2806 0 1.95859 0 2.66554V20.3415C0.00187194 21.0472 0.283531 21.7234 0.783214 22.2218C1.2829 22.7201 1.95982 23 2.66554 23ZM1.25146 2.69382C1.25146 2.31878 1.40044 1.95911 1.66563 1.69392C1.93083 1.42872 2.2905 1.27974 2.66554 1.27974H20.3415C20.7166 1.27974 21.0762 1.42872 21.3414 1.69392C21.6066 1.95911 21.7556 2.31878 21.7556 2.69382V20.3698C21.7556 20.7448 21.6066 21.1045 21.3414 21.3697C21.0762 21.6349 20.7166 21.7839 20.3415 21.7839H2.66554C2.2905 21.7839 1.93083 21.6349 1.66563 21.3697C1.40044 21.1045 1.25146 20.7448 1.25146 20.3698V2.69382Z" fill="url(#paint0_linear_9_5718)"/>
<path d="M5.64925 10.45H17.3295C17.4541 10.4502 17.576 10.4134 17.6797 10.3443C17.7833 10.2752 17.8641 10.1768 17.9118 10.0617C17.9595 9.94662 17.972 9.81994 17.9476 9.69775C17.9233 9.57556 17.8632 9.46335 17.775 9.37534L14.5155 6.04519C14.3949 5.93777 14.2379 5.88025 14.0765 5.88429C13.915 5.88833 13.7611 5.95363 13.646 6.06694C13.5309 6.18026 13.4631 6.33311 13.4566 6.4945C13.45 6.65589 13.505 6.81374 13.6105 6.93605L15.8023 9.18444H5.64925C5.49296 9.20099 5.34831 9.27479 5.24319 9.39162C5.13807 9.50846 5.0799 9.66007 5.0799 9.81724C5.0799 9.97441 5.13807 10.126 5.24319 10.2429C5.34831 10.3597 5.49296 10.4335 5.64925 10.45ZM17.3295 12.5782H5.64925C5.52423 12.579 5.40215 12.6162 5.29793 12.6853C5.19371 12.7543 5.11187 12.8523 5.06241 12.9671C5.01215 13.0862 4.99809 13.2174 5.02198 13.3444C5.04587 13.4714 5.10666 13.5886 5.19675 13.6812L8.46327 17.0043C8.52172 17.0629 8.59115 17.1093 8.66758 17.1411C8.74402 17.1728 8.82596 17.1891 8.90871 17.1891C8.99146 17.1891 9.07339 17.1728 9.14983 17.1411C9.22626 17.1093 9.29569 17.0629 9.35414 17.0043C9.47287 16.885 9.53953 16.7236 9.53953 16.5553C9.53953 16.387 9.47287 16.2256 9.35414 16.1064L7.14111 13.858H17.3295C17.4983 13.858 17.6602 13.7909 17.7795 13.6716C17.8988 13.5523 17.9659 13.3904 17.9659 13.2216C17.9659 13.0529 17.8988 12.891 17.7795 12.7717C17.6602 12.6523 17.4983 12.5853 17.3295 12.5853V12.5782Z" fill="url(#paint1_linear_9_5718)"/>
<defs>
<linearGradient id="paint0_linear_9_5718" x1="-0.479166" y1="8.625" x2="24.4375" y2="14.8542" gradientUnits="userSpaceOnUse">
<stop stop-color="#00EB81"/>
<stop offset="1" stop-color="#0B828C"/>
</linearGradient>
<linearGradient id="paint1_linear_9_5718" x1="4.74074" y1="10.1235" x2="18.5216" y2="14.0716" gradientUnits="userSpaceOnUse">
<stop stop-color="#00EB81"/>
<stop offset="1" stop-color="#0B828C"/>
</linearGradient>
</defs>
</svg>
