<svg width="24" height="34" viewBox="0 0 24 34" fill="none" xmlns="http://www.w3.org/2000/svg">
<path d="M12.3216 0C10.7167 0 9.41416 1.30717 9.41416 2.9074C9.41416 4.50996 10.7167 5.8148 12.3216 5.8148C13.9241 5.8148 15.229 4.51228 15.229 2.9074C15.229 1.30484 13.9241 0 12.3216 0ZM21.0926 0C19.4877 0 18.1852 1.30484 18.1852 2.9074C18.1852 4.51228 19.4877 5.8148 21.0926 5.8148C22.6975 5.8148 24 4.51228 24 2.9074C24 1.30484 22.6975 0 21.0926 0ZM2.90391 0.00465178C2.13282 0.00557709 1.39368 0.312779 0.849092 0.858676C0.304504 1.40457 -0.000923212 2.14445 2.09634e-06 2.91554C0.000927405 3.68663 0.308129 4.42577 0.854027 4.97036C1.39992 5.51495 2.1398 5.82037 2.91089 5.81945C3.29269 5.81899 3.67067 5.74334 4.02324 5.5968C4.3758 5.45027 4.69606 5.23573 4.96571 4.96543C5.23536 4.69512 5.44914 4.37436 5.59482 4.02144C5.74051 3.66852 5.81526 3.29037 5.8148 2.90856C5.81434 2.52676 5.73869 2.14878 5.59215 1.79621C5.44562 1.44365 5.23108 1.1234 4.96078 0.853742C4.69047 0.584089 4.36971 0.370316 4.01679 0.224629C3.66387 0.078942 3.28572 0.00419361 2.90391 0.00465178ZM2.90391 1.14435C3.35584 1.16757 3.78159 1.36345 4.09326 1.69154C4.40492 2.01963 4.57869 2.45488 4.57869 2.9074C4.57869 3.35992 4.40492 3.79517 4.09326 4.12325C3.78159 4.45134 3.35584 4.64722 2.90391 4.67045C2.4558 4.64223 2.03527 4.44433 1.72791 4.11701C1.42056 3.7897 1.24947 3.35756 1.24947 2.90856C1.24947 2.45956 1.42056 2.02743 1.72791 1.70011C2.03527 1.3728 2.4558 1.17489 2.90391 1.14668V1.14435ZM12.3216 1.14435C12.5534 1.14466 12.7829 1.19062 12.997 1.27962C13.211 1.36862 13.4055 1.49892 13.5692 1.66306C13.7329 1.82721 13.8627 2.02199 13.9511 2.23629C14.0396 2.4506 14.0849 2.68022 14.0846 2.91205C14.0843 3.14388 14.0383 3.37338 13.9493 3.58745C13.8603 3.80152 13.73 3.99596 13.5659 4.15968C13.4017 4.32339 13.207 4.45317 12.9927 4.54161C12.7784 4.63004 12.5487 4.6754 12.3169 4.6751C11.8601 4.65792 11.4278 4.46422 11.1109 4.13476C10.794 3.8053 10.6173 3.36576 10.6179 2.90864C10.6185 2.45152 10.7964 2.01246 11.1141 1.68384C11.4319 1.35521 11.8647 1.16265 12.3216 1.14668V1.14435ZM21.0926 1.14435C21.3244 1.14466 21.5539 1.19062 21.768 1.27962C21.9821 1.36862 22.1765 1.49892 22.3402 1.66306C22.5039 1.82721 22.6337 2.02199 22.7222 2.23629C22.8106 2.4506 22.856 2.68022 22.8556 2.91205C22.8553 3.14388 22.8094 3.37338 22.7204 3.58745C22.6314 3.80152 22.5011 3.99596 22.3369 4.15968C22.1728 4.32339 21.978 4.45317 21.7637 4.54161C21.5494 4.63004 21.3198 4.6754 21.0879 4.6751C20.6312 4.65792 20.1988 4.46422 19.8819 4.13476C19.5651 3.8053 19.3883 3.36576 19.3889 2.90864C19.3895 2.45152 19.5674 2.01246 19.8852 1.68384C20.2029 1.35521 20.6358 1.16265 21.0926 1.14668V1.14435ZM2.45966 8.67335V12.7437H11.7633V16.2326H7.32781C5.92296 16.2326 4.78326 17.3769 4.78326 18.7818V26.4806C4.78558 27.8854 5.92528 29.0251 7.32781 29.0251H11.7633V32.514H8.85594V33.677H15.8337V32.514H12.9263V29.0251H17.3618C18.7667 29.0251 19.9041 27.8854 19.9041 26.4806V18.7818C19.9041 17.3769 18.7644 16.2326 17.3618 16.2326H12.924V12.7437H22.2276V8.67335H21.0647V11.5808H12.924V8.67335H11.761V11.5808H3.6203V8.67335H2.45966ZM7.32781 17.3955H17.3595C18.1224 17.3955 18.7388 18.0189 18.7388 18.7818V26.4806C18.7388 26.8466 18.5935 27.1977 18.3349 27.4567C18.0763 27.7157 17.7255 27.8616 17.3595 27.8622H7.32781C6.96139 27.8622 6.60997 27.7166 6.35087 27.4575C6.09177 27.1984 5.94622 26.847 5.94622 26.4806V18.7818C5.94622 18.0189 6.56491 17.3955 7.32781 17.3955Z" fill="url(#paint0_linear_9_5726)"/>
<defs>
<linearGradient id="paint0_linear_9_5726" x1="-0.5" y1="12.6289" x2="26.2751" y2="17.3992" gradientUnits="userSpaceOnUse">
<stop stop-color="#00EB81"/>
<stop offset="1" stop-color="#0B828C"/>
</linearGradient>
</defs>
</svg>
